<svg width="200" height="500" viewBox="0 0 200 500" fill="none" xmlns="http://www.w3.org/2000/svg">
<g clip-path="url(#clip0)">
<g filter="url(#filter0_d)">
<mask id="path-1-inside-1" fill="white">
<path fill-rule="evenodd" clip-rule="evenodd" d="M7 67C7 33.8629 33.8629 7 67 7H132C165.137 7 192 33.8629 192 67V434C192 467.137 165.137 494 132 494H67C33.8629 494 7 467.137 7 434V67ZM24 90C24 83.3726 29.3726 78 36 78H164C170.627 78 176 83.3726 176 90V198C176 204.627 170.627 210 164 210H36C29.3726 210 24 204.627 24 198V90ZM71.5 459C67.9101 459 65 461.91 65 465.5C65 469.09 67.9101 472 71.5 472H128.5C132.09 472 135 469.09 135 465.5C135 461.91 132.09 459 128.5 459H71.5Z"/>
</mask>
<path fill-rule="evenodd" clip-rule="evenodd" d="M7 67C7 33.8629 33.8629 7 67 7H132C165.137 7 192 33.8629 192 67V434C192 467.137 165.137 494 132 494H67C33.8629 494 7 467.137 7 434V67ZM24 90C24 83.3726 29.3726 78 36 78H164C170.627 78 176 83.3726 176 90V198C176 204.627 170.627 210 164 210H36C29.3726 210 24 204.627 24 198V90ZM71.5 459C67.9101 459 65 461.91 65 465.5C65 469.09 67.9101 472 71.5 472H128.5C132.09 472 135 469.09 135 465.5C135 461.91 132.09 459 128.5 459H71.5Z" fill="#F2F2F2"/>
<path d="M67 6C33.3106 6 6 33.3106 6 67H8C8 34.4152 34.4152 8 67 8V6ZM132 6H67V8H132V6ZM193 67C193 33.3106 165.689 6 132 6V8C164.585 8 191 34.4152 191 67H193ZM193 434V67H191V434H193ZM132 495C165.689 495 193 467.689 193 434H191C191 466.585 164.585 493 132 493V495ZM67 495H132V493H67V495ZM6 434C6 467.689 33.3106 495 67 495V493C34.4152 493 8 466.585 8 434H6ZM6 67V434H8V67H6ZM36 77C28.8203 77 23 82.8203 23 90H25C25 83.9249 29.9249 79 36 79V77ZM164 77H36V79H164V77ZM177 90C177 82.8203 171.18 77 164 77V79C170.075 79 175 83.9249 175 90H177ZM177 198V90H175V198H177ZM164 211C171.18 211 177 205.18 177 198H175C175 204.075 170.075 209 164 209V211ZM36 211H164V209H36V211ZM23 198C23 205.18 28.8203 211 36 211V209C29.9249 209 25 204.075 25 198H23ZM23 90V198H25V90H23ZM66 465.5C66 462.462 68.4624 460 71.5 460V458C67.3579 458 64 461.358 64 465.5H66ZM71.5 471C68.4624 471 66 468.538 66 465.5H64C64 469.642 67.3579 473 71.5 473V471ZM128.5 471H71.5V473H128.5V471ZM134 465.5C134 468.538 131.538 471 128.5 471V473C132.642 473 136 469.642 136 465.5H134ZM128.5 460C131.538 460 134 462.462 134 465.5H136C136 461.358 132.642 458 128.5 458V460ZM71.5 460H128.5V458H71.5V460Z" fill="black" mask="url(#path-1-inside-1)"/>
</g>
<mask id="path-3-inside-2" fill="white">
<path fill-rule="evenodd" clip-rule="evenodd" d="M73 34C39.8629 34 13 60.8629 13 94V384C13 417.137 39.8629 444 73 444H126C159.137 444 186 417.137 186 384V94C186 60.8629 159.137 34 126 34H73ZM37 79C30.3726 79 25 84.3726 25 91V197C25 203.627 30.3726 209 37 209H163C169.627 209 175 203.627 175 197V91C175 84.3726 169.627 79 163 79H37Z"/>
</mask>
<g filter="url(#filter1_i)">
<path fill-rule="evenodd" clip-rule="evenodd" d="M73 34C39.8629 34 13 60.8629 13 94V384C13 417.137 39.8629 444 73 444H126C159.137 444 186 417.137 186 384V94C186 60.8629 159.137 34 126 34H73ZM37 79C30.3726 79 25 84.3726 25 91V197C25 203.627 30.3726 209 37 209H163C169.627 209 175 203.627 175 197V91C175 84.3726 169.627 79 163 79H37Z" fill="#797979"/>
</g>
<path d="M14 94C14 61.4152 40.4152 35 73 35V33C39.3106 33 12 60.3106 12 94H14ZM14 384V94H12V384H14ZM73 443C40.4152 443 14 416.585 14 384H12C12 417.689 39.3106 445 73 445V443ZM126 443H73V445H126V443ZM185 384C185 416.585 158.585 443 126 443V445C159.689 445 187 417.689 187 384H185ZM185 94V384H187V94H185ZM126 35C158.585 35 185 61.4152 185 94H187C187 60.3106 159.689 33 126 33V35ZM73 35H126V33H73V35ZM26 91C26 84.9249 30.9249 80 37 80V78C29.8203 78 24 83.8203 24 91H26ZM26 197V91H24V197H26ZM37 208C30.9249 208 26 203.075 26 197H24C24 204.18 29.8203 210 37 210V208ZM163 208H37V210H163V208ZM174 197C174 203.075 169.075 208 163 208V210C170.18 210 176 204.18 176 197H174ZM174 91V197H176V91H174ZM163 80C169.075 80 174 84.9249 174 91H176C176 83.8203 170.18 78 163 78V80ZM37 80H163V78H37V80Z" fill="black" mask="url(#path-3-inside-2)"/>
<g filter="url(#filter2_i)">
<path d="M70.886 62.81C72.1327 62.81 73.064 62.414 73.68 61.622C74.3107 60.83 74.626 59.5393 74.626 57.75C74.626 56.1367 74.3107 54.9633 73.68 54.23C73.064 53.4967 72.1327 53.13 70.886 53.13C70.6073 53.13 70.336 53.152 70.072 53.196C69.9547 53.2253 69.896 53.2987 69.896 53.416V62.502C69.896 62.634 69.9547 62.7147 70.072 62.744C70.336 62.788 70.6073 62.81 70.886 62.81ZM70.446 49.72C73.086 49.72 75.1393 50.4313 76.606 51.854C78.0727 53.262 78.806 55.2273 78.806 57.75C78.806 60.4927 78.0653 62.59 76.584 64.042C75.1173 65.494 73.0713 66.22 70.446 66.22C69.2873 66.22 68.0847 66.1613 66.838 66.044C66.486 66.0147 66.1927 65.8607 65.958 65.582C65.7233 65.3033 65.606 64.988 65.606 64.636V51.304C65.606 50.952 65.7233 50.6367 65.958 50.358C66.1927 50.0793 66.486 49.9253 66.838 49.896C68.0847 49.7787 69.2873 49.72 70.446 49.72ZM90.3378 49.94C90.6751 49.94 90.9684 50.0647 91.2178 50.314C91.4671 50.5633 91.5918 50.8567 91.5918 51.194V52.206C91.5918 52.5433 91.4671 52.8367 91.2178 53.086C90.9684 53.3353 90.6751 53.46 90.3378 53.46H85.6298C85.4978 53.46 85.4318 53.5187 85.4318 53.636V55.902C85.4318 56.034 85.4978 56.1 85.6298 56.1H89.8978C90.2351 56.1 90.5284 56.2247 90.7778 56.474C91.0271 56.7233 91.1518 57.0167 91.1518 57.354V58.146C91.1518 58.4833 91.0271 58.7767 90.7778 59.026C90.5284 59.2753 90.2351 59.4 89.8978 59.4H85.6298C85.4978 59.4 85.4318 59.4587 85.4318 59.576V62.282C85.4318 62.414 85.4978 62.48 85.6298 62.48H90.3378C90.6751 62.48 90.9684 62.6047 91.2178 62.854C91.4671 63.1033 91.5918 63.3967 91.5918 63.734V64.746C91.5918 65.0833 91.4671 65.3767 91.2178 65.626C90.9684 65.8753 90.6751 66 90.3378 66H82.2858C81.9484 66 81.6551 65.8753 81.4058 65.626C81.1564 65.3767 81.0318 65.0833 81.0318 64.746V51.194C81.0318 50.8567 81.1564 50.5633 81.4058 50.314C81.6551 50.0647 81.9484 49.94 82.2858 49.94H90.3378ZM106.094 49.94C106.432 49.94 106.725 50.0647 106.974 50.314C107.224 50.5633 107.348 50.8567 107.348 51.194V64.746C107.348 65.0833 107.224 65.3767 106.974 65.626C106.725 65.8753 106.432 66 106.094 66H104.422C103.586 66 102.985 65.626 102.618 64.878L98.8124 57.222C98.8124 57.2073 98.8051 57.2 98.7904 57.2C98.7758 57.2 98.7684 57.2073 98.7684 57.222V64.746C98.7684 65.0833 98.6438 65.3767 98.3944 65.626C98.1451 65.8753 97.8518 66 97.5144 66H95.8424C95.5051 66 95.2118 65.8753 94.9624 65.626C94.7131 65.3767 94.5884 65.0833 94.5884 64.746V51.194C94.5884 50.8567 94.7131 50.5633 94.9624 50.314C95.2118 50.0647 95.5051 49.94 95.8424 49.94H97.5144C98.3504 49.94 98.9518 50.314 99.3184 51.062L103.124 58.718C103.124 58.7327 103.132 58.74 103.146 58.74C103.161 58.74 103.168 58.7327 103.168 58.718V51.194C103.168 50.8567 103.293 50.5633 103.542 50.314C103.792 50.0647 104.085 49.94 104.422 49.94H106.094ZM115.303 59.62H117.591C117.635 59.62 117.672 59.6053 117.701 59.576C117.745 59.532 117.76 59.488 117.745 59.444L116.469 53.702C116.469 53.6873 116.462 53.68 116.447 53.68C116.433 53.68 116.425 53.6873 116.425 53.702L115.149 59.444C115.135 59.488 115.142 59.532 115.171 59.576C115.215 59.6053 115.259 59.62 115.303 59.62ZM119.175 51.128L123.487 64.812C123.575 65.1053 123.524 65.3767 123.333 65.626C123.157 65.8753 122.915 66 122.607 66H120.451C120.085 66 119.755 65.89 119.461 65.67C119.183 65.4353 119.007 65.142 118.933 64.79L118.559 63.096C118.53 62.9787 118.457 62.92 118.339 62.92H114.577C114.431 62.92 114.35 62.9787 114.335 63.096L113.961 64.79C113.888 65.142 113.705 65.4353 113.411 65.67C113.133 65.89 112.81 66 112.443 66H110.375C110.067 66 109.818 65.8753 109.627 65.626C109.451 65.3767 109.407 65.1053 109.495 64.812L113.807 51.128C113.91 50.776 114.108 50.49 114.401 50.27C114.709 50.05 115.054 49.94 115.435 49.94H117.547C117.914 49.94 118.244 50.05 118.537 50.27C118.845 50.49 119.058 50.776 119.175 51.128ZM130.379 55.88C132.432 56.4813 133.862 57.2 134.669 58.036C135.475 58.872 135.879 59.9867 135.879 61.38C135.879 64.6067 133.789 66.22 129.609 66.22C128.274 66.22 127.064 66 125.979 65.56C125.641 65.428 125.37 65.1933 125.165 64.856C124.974 64.5187 124.879 64.152 124.879 63.756V62.634C124.879 62.3553 124.996 62.15 125.231 62.018C125.465 61.886 125.707 61.8787 125.957 61.996C127.115 62.5387 128.259 62.81 129.389 62.81C130.709 62.81 131.369 62.37 131.369 61.49C131.369 61.0793 131.266 60.764 131.061 60.544C130.855 60.324 130.481 60.126 129.939 59.95C127.988 59.3487 126.58 58.6007 125.715 57.706C124.864 56.7967 124.439 55.6747 124.439 54.34C124.439 52.9027 124.952 51.7733 125.979 50.952C127.02 50.1307 128.523 49.72 130.489 49.72C131.897 49.72 133.151 49.874 134.251 50.182C134.603 50.2847 134.889 50.4973 135.109 50.82C135.329 51.128 135.439 51.4727 135.439 51.854V52.932C135.439 53.2253 135.314 53.46 135.065 53.636C134.83 53.7973 134.566 53.8267 134.273 53.724C132.967 53.2987 131.779 53.086 130.709 53.086C129.506 53.086 128.905 53.504 128.905 54.34C128.905 55.0733 129.396 55.5867 130.379 55.88Z" fill="white"/>
</g>
<path d="M73.68 61.622L73.2888 61.3105L73.2853 61.315L73.68 61.622ZM73.68 54.23L73.2971 54.5516L73.3009 54.556L73.68 54.23ZM70.072 53.196L69.9898 52.7028L69.9701 52.7061L69.9507 52.7109L70.072 53.196ZM70.072 62.744L69.9507 63.2291L69.9701 63.2339L69.9898 63.2372L70.072 62.744ZM76.606 51.854L76.2579 52.2129L76.2597 52.2147L76.606 51.854ZM76.584 64.042L76.234 63.6849L76.2322 63.6867L76.584 64.042ZM66.838 66.044L66.8849 65.5462L66.8795 65.5457L66.838 66.044ZM65.958 65.582L65.5755 65.9041L65.5755 65.9041L65.958 65.582ZM65.958 50.358L65.5755 50.0359L65.5755 50.0359L65.958 50.358ZM66.838 49.896L66.8795 50.3943L66.8849 50.3938L66.838 49.896ZM70.886 63.31C72.2456 63.31 73.3412 62.872 74.0747 61.929L73.2853 61.315C72.7868 61.956 72.0197 62.31 70.886 62.31V63.31ZM74.0711 61.9335C74.8089 61.007 75.126 59.5749 75.126 57.75H74.126C74.126 59.5037 73.8125 60.653 73.2889 61.3105L74.0711 61.9335ZM75.126 57.75C75.126 56.091 74.8053 54.7716 74.0591 53.904L73.3009 54.556C73.8161 55.155 74.126 56.1824 74.126 57.75H75.126ZM74.0629 53.9084C73.3249 53.0299 72.2326 52.63 70.886 52.63V53.63C72.0327 53.63 72.8031 53.9634 73.2971 54.5516L74.0629 53.9084ZM70.886 52.63C70.5809 52.63 70.2821 52.6541 69.9898 52.7028L70.1542 53.6892C70.3899 53.6499 70.6337 53.63 70.886 53.63V52.63ZM69.9507 52.7109C69.8166 52.7445 69.6648 52.8166 69.5496 52.9607C69.4331 53.1062 69.396 53.2728 69.396 53.416H70.396C70.396 53.4419 70.3882 53.5131 70.3304 53.5853C70.2739 53.656 70.21 53.6769 70.1933 53.6811L69.9507 52.7109ZM69.396 53.416V62.502H70.396V53.416H69.396ZM69.396 62.502C69.396 62.6398 69.4268 62.8059 69.5356 62.9556C69.6478 63.1099 69.8034 63.1922 69.9507 63.2291L70.1933 62.2589C70.2233 62.2664 70.2908 62.2938 70.3444 62.3674C70.3945 62.4364 70.396 62.4962 70.396 62.502H69.396ZM69.9898 63.2372C70.2821 63.2859 70.5809 63.31 70.886 63.31V62.31C70.6337 62.31 70.3899 62.2901 70.1542 62.2508L69.9898 63.2372ZM70.446 50.22C72.9955 50.22 74.9094 50.9049 76.2579 52.2129L76.9541 51.4951C75.3692 49.9578 73.1765 49.22 70.446 49.22V50.22ZM76.2597 52.2147C77.6056 53.5067 78.306 55.3285 78.306 57.75H79.306C79.306 55.1261 78.5398 53.0173 76.9523 51.4933L76.2597 52.2147ZM78.306 57.75C78.306 60.4033 77.5914 62.3544 76.234 63.6849L76.934 64.3991C78.5392 62.8256 79.306 60.582 79.306 57.75H78.306ZM76.2322 63.6867C74.8829 65.0225 72.9772 65.72 70.446 65.72V66.72C73.1655 66.72 75.3518 65.9655 76.9358 64.3973L76.2322 63.6867ZM70.446 65.72C69.3042 65.72 68.1172 65.6622 66.8849 65.5462L66.7911 66.5418C68.0522 66.6605 69.2705 66.72 70.446 66.72V65.72ZM66.8795 65.5457C66.6647 65.5278 66.4925 65.4404 66.3405 65.2599L65.5755 65.9041C65.8929 66.2809 66.3073 66.5015 66.7965 66.5423L66.8795 65.5457ZM66.3405 65.2599C66.1788 65.068 66.106 64.8657 66.106 64.636H65.106C65.106 65.1103 65.2679 65.5387 65.5755 65.9041L66.3405 65.2599ZM66.106 64.636V51.304H65.106V64.636H66.106ZM66.106 51.304C66.106 51.0743 66.1788 50.872 66.3405 50.6801L65.5755 50.0359C65.2679 50.4013 65.106 50.8297 65.106 51.304H66.106ZM66.3405 50.6801C66.4925 50.4996 66.6647 50.4122 66.8795 50.3943L66.7965 49.3977C66.3073 49.4385 65.8929 49.6591 65.5755 50.0359L66.3405 50.6801ZM66.8849 50.3938C68.1172 50.2778 69.3042 50.22 70.446 50.22V49.22C69.2705 49.22 68.0522 49.2795 66.7911 49.3982L66.8849 50.3938ZM90.7778 56.474L91.1313 56.1204L91.1313 56.1204L90.7778 56.474ZM90.7778 59.026L91.1313 59.3796L91.1313 59.3796L90.7778 59.026ZM91.2178 62.854L90.8642 63.2076L90.8642 63.2076L91.2178 62.854ZM91.2178 65.626L90.8642 65.2724L90.8642 65.2724L91.2178 65.626ZM81.4058 65.626L81.0522 65.9796L81.0522 65.9796L81.4058 65.626ZM81.4058 50.314L81.0522 49.9604L81.0522 49.9604L81.4058 50.314ZM90.3378 50.44C90.536 50.44 90.7039 50.5073 90.8642 50.6676L91.5713 49.9604C91.233 49.6221 90.8143 49.44 90.3378 49.44V50.44ZM90.8642 50.6676C91.0245 50.8278 91.0918 50.9958 91.0918 51.194H92.0918C92.0918 50.7175 91.9097 50.2988 91.5713 49.9604L90.8642 50.6676ZM91.0918 51.194V52.206H92.0918V51.194H91.0918ZM91.0918 52.206C91.0918 52.4042 91.0245 52.5721 90.8642 52.7324L91.5713 53.4396C91.9097 53.1012 92.0918 52.6825 92.0918 52.206H91.0918ZM90.8642 52.7324C90.7039 52.8927 90.536 52.96 90.3378 52.96V53.96C90.8143 53.96 91.233 53.7779 91.5713 53.4396L90.8642 52.7324ZM90.3378 52.96H85.6298V53.96H90.3378V52.96ZM85.6298 52.96C85.5003 52.96 85.3097 52.9875 85.1491 53.1303C84.9772 53.2831 84.9318 53.484 84.9318 53.636H85.9318C85.9318 53.6707 85.9193 53.7836 85.8135 53.8777C85.7666 53.9194 85.719 53.9404 85.6852 53.9504C85.6531 53.9599 85.6322 53.96 85.6298 53.96V52.96ZM84.9318 53.636V55.902H85.9318V53.636H84.9318ZM84.9318 55.902C84.9318 56.0451 84.9679 56.2442 85.1277 56.4041C85.2876 56.5639 85.4867 56.6 85.6298 56.6V55.6C85.6409 55.6 85.741 55.6031 85.8348 55.6969C85.9287 55.7908 85.9318 55.8909 85.9318 55.902H84.9318ZM85.6298 56.6H89.8978V55.6H85.6298V56.6ZM89.8978 56.6C90.096 56.6 90.2639 56.6673 90.4242 56.8276L91.1313 56.1204C90.793 55.7821 90.3743 55.6 89.8978 55.6V56.6ZM90.4242 56.8276C90.5845 56.9878 90.6518 57.1558 90.6518 57.354H91.6518C91.6518 56.8775 91.4697 56.4588 91.1313 56.1204L90.4242 56.8276ZM90.6518 57.354V58.146H91.6518V57.354H90.6518ZM90.6518 58.146C90.6518 58.3442 90.5845 58.5121 90.4242 58.6724L91.1313 59.3796C91.4697 59.0412 91.6518 58.6225 91.6518 58.146H90.6518ZM90.4242 58.6724C90.2639 58.8327 90.096 58.9 89.8978 58.9V59.9C90.3743 59.9 90.793 59.7179 91.1313 59.3796L90.4242 58.6724ZM89.8978 58.9H85.6298V59.9H89.8978V58.9ZM85.6298 58.9C85.5003 58.9 85.3097 58.9275 85.1491 59.0703C84.9772 59.2231 84.9318 59.424 84.9318 59.576H85.9318C85.9318 59.6107 85.9193 59.7236 85.8135 59.8177C85.7666 59.8594 85.719 59.8804 85.6852 59.8904C85.6531 59.8999 85.6322 59.9 85.6298 59.9V58.9ZM84.9318 59.576V62.282H85.9318V59.576H84.9318ZM84.9318 62.282C84.9318 62.4251 84.9679 62.6242 85.1277 62.7841C85.2876 62.9439 85.4867 62.98 85.6298 62.98V61.98C85.6409 61.98 85.741 61.9831 85.8348 62.0769C85.9287 62.1708 85.9318 62.2709 85.9318 62.282H84.9318ZM85.6298 62.98H90.3378V61.98H85.6298V62.98ZM90.3378 62.98C90.536 62.98 90.7039 63.0473 90.8642 63.2076L91.5713 62.5004C91.233 62.1621 90.8143 61.98 90.3378 61.98V62.98ZM90.8642 63.2076C91.0245 63.3679 91.0918 63.5358 91.0918 63.734H92.0918C92.0918 63.2575 91.9097 62.8388 91.5713 62.5004L90.8642 63.2076ZM91.0918 63.734V64.746H92.0918V63.734H91.0918ZM91.0918 64.746C91.0918 64.9442 91.0245 65.1121 90.8642 65.2724L91.5713 65.9796C91.9097 65.6412 92.0918 65.2225 92.0918 64.746H91.0918ZM90.8642 65.2724C90.7039 65.4327 90.536 65.5 90.3378 65.5V66.5C90.8143 66.5 91.233 66.3179 91.5713 65.9796L90.8642 65.2724ZM90.3378 65.5H82.2858V66.5H90.3378V65.5ZM82.2858 65.5C82.0876 65.5 81.9196 65.4327 81.7593 65.2724L81.0522 65.9796C81.3906 66.3179 81.8093 66.5 82.2858 66.5V65.5ZM81.7593 65.2724C81.599 65.1121 81.5318 64.9442 81.5318 64.746H80.5318C80.5318 65.2225 80.7139 65.6412 81.0522 65.9796L81.7593 65.2724ZM81.5318 64.746V51.194H80.5318V64.746H81.5318ZM81.5318 51.194C81.5318 50.9958 81.599 50.8278 81.7593 50.6676L81.0522 49.9604C80.7139 50.2988 80.5318 50.7175 80.5318 51.194H81.5318ZM81.7593 50.6676C81.9196 50.5073 82.0876 50.44 82.2858 50.44V49.44C81.8093 49.44 81.3906 49.6221 81.0522 49.9604L81.7593 50.6676ZM82.2858 50.44H90.3378V49.44H82.2858V50.44ZM106.974 50.314L107.328 49.9604L107.328 49.9604L106.974 50.314ZM102.618 64.878L103.067 64.6579L103.066 64.6554L102.618 64.878ZM98.8124 57.222H98.3124V57.3394L98.3647 57.4446L98.8124 57.222ZM98.3944 65.626L98.0409 65.2724L98.0409 65.2724L98.3944 65.626ZM94.9624 65.626L94.6089 65.9796L94.6089 65.9796L94.9624 65.626ZM94.9624 50.314L94.6089 49.9604L94.6089 49.9604L94.9624 50.314ZM99.3184 51.062L98.8695 51.2821L98.8707 51.2846L99.3184 51.062ZM103.124 58.718H103.624V58.6006L103.572 58.4954L103.124 58.718ZM103.542 50.314L103.189 49.9604L103.189 49.9604L103.542 50.314ZM106.094 50.44C106.293 50.44 106.461 50.5073 106.621 50.6676L107.328 49.9604C106.99 49.6221 106.571 49.44 106.094 49.44V50.44ZM106.621 50.6676C106.781 50.8278 106.848 50.9958 106.848 51.194H107.848C107.848 50.7175 107.666 50.2988 107.328 49.9604L106.621 50.6676ZM106.848 51.194V64.746H107.848V51.194H106.848ZM106.848 64.746C106.848 64.9442 106.781 65.1121 106.621 65.2724L107.328 65.9796C107.666 65.6412 107.848 65.2225 107.848 64.746H106.848ZM106.621 65.2724C106.461 65.4327 106.293 65.5 106.094 65.5V66.5C106.571 66.5 106.99 66.3179 107.328 65.9796L106.621 65.2724ZM106.094 65.5H104.422V66.5H106.094V65.5ZM104.422 65.5C104.081 65.5 103.817 65.4243 103.608 65.2949C103.401 65.1656 103.217 64.9628 103.067 64.6579L102.169 65.0981C102.387 65.5412 102.687 65.8994 103.08 66.1441C103.474 66.3887 103.928 66.5 104.422 66.5V65.5ZM103.066 64.6554L99.2601 56.9994L98.3647 57.4446L102.171 65.1006L103.066 64.6554ZM99.3124 57.222C99.3124 57.1376 99.291 56.9824 99.1605 56.8519C99.03 56.7214 98.8748 56.7 98.7904 56.7V57.7C98.7207 57.7 98.5765 57.6822 98.4534 57.5591C98.3302 57.4359 98.3124 57.2917 98.3124 57.222H99.3124ZM98.7904 56.7C98.706 56.7 98.5509 56.7214 98.4204 56.8519C98.2899 56.9825 98.2684 57.1376 98.2684 57.222H99.2684C99.2684 57.2917 99.2506 57.4359 99.1275 57.5591C99.0043 57.6822 98.8602 57.7 98.7904 57.7V56.7ZM98.2684 57.222V64.746H99.2684V57.222H98.2684ZM98.2684 64.746C98.2684 64.9442 98.2012 65.1121 98.0409 65.2724L98.748 65.9796C99.0863 65.6412 99.2684 65.2225 99.2684 64.746H98.2684ZM98.0409 65.2724C97.8806 65.4327 97.7126 65.5 97.5144 65.5V66.5C97.9909 66.5 98.4096 66.3179 98.748 65.9796L98.0409 65.2724ZM97.5144 65.5H95.8424V66.5H97.5144V65.5ZM95.8424 65.5C95.6442 65.5 95.4763 65.4327 95.316 65.2724L94.6089 65.9796C94.9472 66.3179 95.3659 66.5 95.8424 66.5V65.5ZM95.316 65.2724C95.1557 65.1121 95.0884 64.9442 95.0884 64.746H94.0884C94.0884 65.2225 94.2705 65.6412 94.6089 65.9796L95.316 65.2724ZM95.0884 64.746V51.194H94.0884V64.746H95.0884ZM95.0884 51.194C95.0884 50.9958 95.1557 50.8278 95.316 50.6676L94.6089 49.9604C94.2705 50.2988 94.0884 50.7175 94.0884 51.194H95.0884ZM95.316 50.6676C95.4763 50.5073 95.6442 50.44 95.8424 50.44V49.44C95.3659 49.44 94.9472 49.6221 94.6089 49.9604L95.316 50.6676ZM95.8424 50.44H97.5144V49.44H95.8424V50.44ZM97.5144 50.44C97.8562 50.44 98.1203 50.5157 98.3284 50.6451C98.5363 50.7744 98.72 50.9772 98.8695 51.2821L99.7674 50.8419C99.5502 50.3988 99.2499 50.0406 98.8565 49.7959C98.4632 49.5513 98.0087 49.44 97.5144 49.44V50.44ZM98.8707 51.2846L102.677 58.9406L103.572 58.4954L99.7661 50.8394L98.8707 51.2846ZM102.624 58.718C102.624 58.8024 102.646 58.9575 102.776 59.088C102.907 59.2186 103.062 59.24 103.146 59.24V58.24C103.216 58.24 103.36 58.2578 103.483 58.381C103.607 58.5041 103.624 58.6483 103.624 58.718H102.624ZM103.146 59.24C103.231 59.24 103.386 59.2186 103.516 59.0881C103.647 58.9575 103.668 58.8024 103.668 58.718H102.668C102.668 58.6483 102.686 58.5041 102.809 58.3809C102.933 58.2578 103.077 58.24 103.146 58.24V59.24ZM103.668 58.718V51.194H102.668V58.718H103.668ZM103.668 51.194C103.668 50.9958 103.736 50.8278 103.896 50.6676L103.189 49.9604C102.85 50.2988 102.668 50.7175 102.668 51.194H103.668ZM103.896 50.6676C104.056 50.5073 104.224 50.44 104.422 50.44V49.44C103.946 49.44 103.527 49.6221 103.189 49.9604L103.896 50.6676ZM104.422 50.44H106.094V49.44H104.422V50.44ZM117.701 59.576L118.055 59.9296L117.701 59.576ZM117.745 59.444L117.257 59.5525L117.263 59.5776L117.271 59.6021L117.745 59.444ZM116.469 53.702H115.969V53.7569L115.981 53.8105L116.469 53.702ZM116.425 53.702L116.913 53.8105L116.925 53.7569V53.702H116.425ZM115.149 59.444L115.624 59.6021L115.632 59.5776L115.637 59.5525L115.149 59.444ZM115.171 59.576L114.755 59.8534L114.811 59.9366L114.894 59.992L115.171 59.576ZM119.175 51.128L119.652 50.9777L119.65 50.9699L119.175 51.128ZM123.487 64.812L123.966 64.6683L123.964 64.6617L123.487 64.812ZM123.333 65.626L122.936 65.3223L122.93 65.3299L122.925 65.3377L123.333 65.626ZM119.461 65.67L119.139 66.0525L119.15 66.0615L119.161 66.07L119.461 65.67ZM118.933 64.79L119.423 64.688L119.422 64.6822L118.933 64.79ZM118.559 63.096L119.048 62.9882L119.044 62.9747L118.559 63.096ZM114.335 63.096L114.824 63.2038L114.829 63.1811L114.831 63.158L114.335 63.096ZM113.961 64.79L113.473 64.6822L113.472 64.688L113.961 64.79ZM113.411 65.67L113.721 66.0624L113.724 66.0604L113.411 65.67ZM109.627 65.626L109.219 65.9143L109.224 65.9221L109.23 65.9297L109.627 65.626ZM109.495 64.812L109.018 64.6617L109.016 64.6683L109.495 64.812ZM113.807 51.128L114.284 51.2783L114.287 51.268L113.807 51.128ZM114.401 50.27L114.111 49.863L114.101 49.87L114.401 50.27ZM118.537 50.27L118.237 50.6701L118.247 50.6769L118.537 50.27ZM115.303 60.12H117.591V59.12H115.303V60.12ZM117.591 60.12C117.759 60.12 117.926 60.0588 118.055 59.9296L117.348 59.2224C117.379 59.1917 117.418 59.1638 117.466 59.1448C117.513 59.1259 117.557 59.12 117.591 59.12V60.12ZM118.055 59.9296C118.179 59.805 118.315 59.5715 118.22 59.2859L117.271 59.6021C117.244 59.5215 117.244 59.4325 117.271 59.3519C117.295 59.2795 117.333 59.2374 117.348 59.2224L118.055 59.9296ZM118.233 59.3355L116.957 53.5935L115.981 53.8105L117.257 59.5525L118.233 59.3355ZM116.969 53.702C116.969 53.6176 116.948 53.4625 116.817 53.3319C116.687 53.2014 116.532 53.18 116.447 53.18V54.18C116.378 54.18 116.233 54.1622 116.11 54.0391C115.987 53.9159 115.969 53.7717 115.969 53.702H116.969ZM116.447 53.18C116.363 53.18 116.208 53.2014 116.077 53.3319C115.947 53.4624 115.925 53.6176 115.925 53.702H116.925C116.925 53.7717 116.908 53.9159 116.784 54.0391C116.661 54.1622 116.517 54.18 116.447 54.18V53.18ZM115.937 53.5935L114.661 59.3355L115.637 59.5525L116.913 53.8105L115.937 53.5935ZM114.675 59.2859C114.604 59.4981 114.654 59.7014 114.755 59.8534L115.587 59.2986C115.605 59.3247 115.627 59.3683 115.637 59.4278C115.647 59.4895 115.641 59.5499 115.624 59.6021L114.675 59.2859ZM114.894 59.992C115.003 60.0649 115.142 60.12 115.303 60.12V59.12C115.376 59.12 115.427 59.1458 115.449 59.16L114.894 59.992ZM118.698 51.2783L123.01 64.9623L123.964 64.6617L119.652 50.9777L118.698 51.2783ZM123.008 64.9557C123.049 65.0909 123.032 65.1966 122.936 65.3223L123.73 65.9297C124.016 65.5568 124.102 65.1197 123.966 64.6683L123.008 64.9557ZM122.925 65.3377C122.844 65.4528 122.755 65.5 122.607 65.5V66.5C123.076 66.5 123.471 66.2979 123.742 65.9143L122.925 65.3377ZM122.607 65.5H120.451V66.5H122.607V65.5ZM120.451 65.5C120.193 65.5 119.968 65.4251 119.761 65.27L119.161 66.07C119.541 66.3549 119.976 66.5 120.451 66.5V65.5ZM119.783 65.2875C119.589 65.124 119.473 64.9289 119.423 64.688L118.444 64.892C118.54 65.3551 118.776 65.7467 119.139 66.0525L119.783 65.2875ZM119.422 64.6822L119.048 62.9882L118.071 63.2038L118.445 64.8978L119.422 64.6822ZM119.044 62.9747C119.011 62.8406 118.939 62.6888 118.795 62.5736C118.649 62.4571 118.483 62.42 118.339 62.42V63.42C118.313 63.42 118.242 63.4122 118.17 63.3544C118.099 63.2979 118.078 63.234 118.074 63.2173L119.044 62.9747ZM118.339 62.42H114.577V63.42H118.339V62.42ZM114.577 62.42C114.446 62.42 114.27 62.4451 114.113 62.5596C113.94 62.6853 113.86 62.8658 113.839 63.034L114.831 63.158C114.829 63.1794 114.821 63.2155 114.798 63.2571C114.775 63.3005 114.741 63.339 114.701 63.3684C114.624 63.4242 114.562 63.42 114.577 63.42V62.42ZM113.847 62.9882L113.473 64.6822L114.45 64.8978L114.824 63.2038L113.847 62.9882ZM113.472 64.688C113.423 64.9208 113.306 65.114 113.099 65.2796L113.724 66.0604C114.103 65.7567 114.353 65.3632 114.451 64.892L113.472 64.688ZM113.101 65.2776C112.914 65.4255 112.702 65.5 112.443 65.5V66.5C112.918 66.5 113.351 66.3545 113.721 66.0624L113.101 65.2776ZM112.443 65.5H110.375V66.5H112.443V65.5ZM110.375 65.5C110.227 65.5 110.123 65.4507 110.024 65.3223L109.23 65.9297C109.513 66.3 109.908 66.5 110.375 66.5V65.5ZM110.036 65.3377C109.949 65.2144 109.93 65.1024 109.974 64.9557L109.016 64.6683C108.884 65.1082 108.954 65.539 109.219 65.9143L110.036 65.3377ZM109.972 64.9623L114.284 51.2783L113.33 50.9777L109.018 64.6617L109.972 64.9623ZM114.287 51.268C114.36 51.0199 114.495 50.8251 114.701 50.67L114.101 49.87C113.721 50.1549 113.46 50.5321 113.327 50.988L114.287 51.268ZM114.692 50.6769C114.914 50.5179 115.157 50.44 115.435 50.44V49.44C114.951 49.44 114.504 49.5821 114.111 49.8631L114.692 50.6769ZM115.435 50.44H117.547V49.44H115.435V50.44ZM117.547 50.44C117.806 50.44 118.031 50.5149 118.237 50.67L118.837 49.87C118.457 49.5851 118.022 49.44 117.547 49.44V50.44ZM118.247 50.6769C118.471 50.8368 118.618 51.0365 118.701 51.2861L119.65 50.9699C119.498 50.5155 119.22 50.1432 118.828 49.8631L118.247 50.6769ZM130.379 55.88L130.236 56.3591L130.238 56.3598L130.379 55.88ZM134.669 58.036L134.309 58.3832L134.309 58.3832L134.669 58.036ZM125.979 65.56L126.167 65.0966L126.161 65.0944L125.979 65.56ZM125.165 64.856L124.73 65.102L124.734 65.1091L124.738 65.116L125.165 64.856ZM125.231 62.018L125.476 62.4538L125.476 62.4538L125.231 62.018ZM125.957 61.996L125.744 62.4484L125.745 62.4488L125.957 61.996ZM131.061 60.544L130.695 60.8852L131.061 60.544ZM129.939 59.95L130.093 59.4743L130.086 59.4722L129.939 59.95ZM125.715 57.706L125.35 58.0476L125.355 58.0536L125.715 57.706ZM125.979 50.952L125.669 50.5594L125.666 50.5616L125.979 50.952ZM134.251 50.182L134.391 49.702L134.386 49.7005L134.251 50.182ZM135.109 50.82L134.696 51.1017L134.702 51.1106L135.109 50.82ZM135.065 53.636L135.348 54.0481L135.353 54.0445L135.065 53.636ZM134.273 53.724L134.438 53.252L134.428 53.2486L134.273 53.724ZM130.238 56.3598C132.268 56.9542 133.595 57.6428 134.309 58.3832L135.029 57.6888C134.13 56.7572 132.597 56.0085 130.519 55.4002L130.238 56.3598ZM134.309 58.3832C135.008 59.1079 135.379 60.0887 135.379 61.38H136.379C136.379 59.8846 135.943 58.6361 135.029 57.6888L134.309 58.3832ZM135.379 61.38C135.379 62.8767 134.901 63.9234 134.006 64.6142C133.086 65.324 131.648 65.72 129.609 65.72V66.72C131.749 66.72 133.446 66.3093 134.617 65.4058C135.812 64.4833 136.379 63.11 136.379 61.38H135.379ZM129.609 65.72C128.33 65.72 127.185 65.5093 126.167 65.0966L125.791 66.0234C126.944 66.4907 128.219 66.72 129.609 66.72V65.72ZM126.161 65.0944C125.935 65.0059 125.746 64.8488 125.592 64.596L124.738 65.116C124.995 65.5379 125.348 65.8501 125.797 66.0256L126.161 65.0944ZM125.6 64.61C125.453 64.3494 125.379 64.0678 125.379 63.756H124.379C124.379 64.2362 124.495 64.6879 124.73 65.102L125.6 64.61ZM125.379 63.756V62.634H124.379V63.756H125.379ZM125.379 62.634C125.379 62.5281 125.405 62.4935 125.476 62.4538L124.986 61.5822C124.587 61.8065 124.379 62.1825 124.379 62.634H125.379ZM125.476 62.4538C125.566 62.4033 125.637 62.398 125.744 62.4484L126.17 61.5436C125.778 61.3593 125.365 61.3687 124.986 61.5822L125.476 62.4538ZM125.745 62.4488C126.961 63.0184 128.177 63.31 129.389 63.31V62.31C128.342 62.31 127.27 62.0589 126.169 61.5432L125.745 62.4488ZM129.389 63.31C130.089 63.31 130.701 63.1962 131.151 62.896C131.637 62.572 131.869 62.0757 131.869 61.49H130.869C130.869 61.7843 130.77 61.948 130.596 62.064C130.387 62.2038 130.009 62.31 129.389 62.31V63.31ZM131.869 61.49C131.869 60.9995 131.745 60.5448 131.426 60.2028L130.695 60.8852C130.787 60.9832 130.869 61.1592 130.869 61.49H131.869ZM131.426 60.2028C131.131 59.8869 130.656 59.657 130.093 59.4744L129.785 60.4256C130.307 60.595 130.58 60.7611 130.695 60.8852L131.426 60.2028ZM130.086 59.4722C128.17 58.8816 126.855 58.1654 126.074 57.3584L125.355 58.0536C126.305 59.0359 127.806 59.8158 129.792 60.4278L130.086 59.4722ZM126.08 57.3644C125.323 56.5548 124.939 55.5578 124.939 54.34H123.939C123.939 55.7915 124.406 57.0386 125.35 58.0476L126.08 57.3644ZM124.939 54.34C124.939 53.0384 125.395 52.0592 126.291 51.3424L125.666 50.5616C124.509 51.4875 123.939 52.767 123.939 54.34H124.939ZM126.288 51.3446C127.208 50.6193 128.584 50.22 130.489 50.22V49.22C128.463 49.22 126.832 49.642 125.669 50.5594L126.288 51.3446ZM130.489 50.22C131.861 50.22 133.069 50.3702 134.116 50.6635L134.386 49.7005C133.233 49.3778 131.932 49.22 130.489 49.22V50.22ZM134.111 50.662C134.344 50.73 134.536 50.8681 134.696 51.1017L135.522 50.5383C135.241 50.1266 134.862 49.8393 134.391 49.702L134.111 50.662ZM134.702 51.1106C134.861 51.3331 134.939 51.576 134.939 51.854H135.939C135.939 51.3693 135.797 50.9229 135.516 50.5294L134.702 51.1106ZM134.939 51.854V52.932H135.939V51.854H134.939ZM134.939 52.932C134.939 53.0552 134.899 53.1407 134.776 53.2275L135.353 54.0445C135.729 53.7793 135.939 53.3954 135.939 52.932H134.939ZM134.782 53.224C134.692 53.2858 134.597 53.3077 134.438 53.2521L134.108 54.1959C134.535 54.3457 134.969 54.3089 135.348 54.048L134.782 53.224ZM134.428 53.2486C133.086 52.8113 131.845 52.586 130.709 52.586V53.586C131.714 53.586 132.849 53.786 134.118 54.1994L134.428 53.2486ZM130.709 52.586C130.065 52.586 129.493 52.6951 129.07 52.9889C128.615 53.3057 128.405 53.7851 128.405 54.34H129.405C129.405 54.0589 129.496 53.9113 129.641 53.8101C129.82 53.6859 130.15 53.586 130.709 53.586V52.586ZM128.405 54.34C128.405 54.8309 128.574 55.2677 128.912 55.6207C129.238 55.9617 129.696 56.198 130.236 56.3591L130.522 55.4009C130.079 55.2687 129.799 55.1016 129.635 54.9293C129.481 54.7689 129.405 54.5824 129.405 54.34H128.405Z" fill="black"/>
</g>
<defs>
<filter id="filter0_d" x="3" y="7" width="193" height="495" filterUnits="userSpaceOnUse" color-interpolation-filters="sRGB">
<feFlood flood-opacity="0" result="BackgroundImageFix"/>
<feColorMatrix in="SourceAlpha" type="matrix" values="0 0 0 0 0 0 0 0 0 0 0 0 0 0 0 0 0 0 127 0"/>
<feOffset dy="4"/>
<feGaussianBlur stdDeviation="2"/>
<feColorMatrix type="matrix" values="0 0 0 0 0 0 0 0 0 0 0 0 0 0 0 0 0 0 0.25 0"/>
<feBlend mode="normal" in2="BackgroundImageFix" result="effect1_dropShadow"/>
<feBlend mode="normal" in="SourceGraphic" in2="effect1_dropShadow" result="shape"/>
</filter>
<filter id="filter1_i" x="13" y="34" width="173" height="414" filterUnits="userSpaceOnUse" color-interpolation-filters="sRGB">
<feFlood flood-opacity="0" result="BackgroundImageFix"/>
<feBlend mode="normal" in="SourceGraphic" in2="BackgroundImageFix" result="shape"/>
<feColorMatrix in="SourceAlpha" type="matrix" values="0 0 0 0 0 0 0 0 0 0 0 0 0 0 0 0 0 0 127 0" result="hardAlpha"/>
<feOffset dy="4"/>
<feGaussianBlur stdDeviation="2"/>
<feComposite in2="hardAlpha" operator="arithmetic" k2="-1" k3="1"/>
<feColorMatrix type="matrix" values="0 0 0 0 0 0 0 0 0 0 0 0 0 0 0 0 0 0 0.25 0"/>
<feBlend mode="normal" in2="shape" result="effect1_innerShadow"/>
</filter>
<filter id="filter2_i" x="65.106" y="49.22" width="71.2728" height="21.5" filterUnits="userSpaceOnUse" color-interpolation-filters="sRGB">
<feFlood flood-opacity="0" result="BackgroundImageFix"/>
<feBlend mode="normal" in="SourceGraphic" in2="BackgroundImageFix" result="shape"/>
<feColorMatrix in="SourceAlpha" type="matrix" values="0 0 0 0 0 0 0 0 0 0 0 0 0 0 0 0 0 0 127 0" result="hardAlpha"/>
<feOffset dy="4"/>
<feGaussianBlur stdDeviation="2"/>
<feComposite in2="hardAlpha" operator="arithmetic" k2="-1" k3="1"/>
<feColorMatrix type="matrix" values="0 0 0 0 0 0 0 0 0 0 0 0 0 0 0 0 0 0 0.25 0"/>
<feBlend mode="normal" in2="shape" result="effect1_innerShadow"/>
</filter>
<clipPath id="clip0">
<rect width="200" height="500" fill="white"/>
</clipPath>
</defs>
</svg>
